<svg width="36" height="36" viewBox="0 0 36 36" fill="none" xmlns="http://www.w3.org/2000/svg">
<path opacity="0.5" d="M35.9911 0.243203L27.183 33.15C27.1383 33.2994 26.9591 33.3442 26.8546 33.2396L20.9577 27.3394L25.3766 10.8487C25.4214 10.6993 25.2871 10.5649 25.1378 10.6097L8.65621 15.0311L2.78913 9.16075C2.68463 9.05619 2.72942 8.87695 2.8787 8.83213L35.7523 0.00420652C35.9015 -0.025668 36.0359 0.108767 35.9911 0.243203Z" fill="#00B37E"/>
<path opacity="0.5" d="M20.9575 27.3391L18.6883 35.8533C18.6435 36.0027 18.4644 36.0475 18.3599 35.943L0.0569536 17.6448C-0.0475491 17.5402 -0.00276248 17.361 0.146527 17.3162L8.65603 15.0308L20.9575 27.3391Z" fill="#00B37E"/>
<path d="M25.3759 10.8485L20.957 27.3393L8.65552 15.031L25.1371 10.6095C25.2864 10.5647 25.4207 10.6991 25.3759 10.8485Z" fill="#00B37E"/>
</svg>
